<svg xmlns="http://www.w3.org/2000/svg" width="42" height="45" fill="none" viewBox="0 0 42 45"><path fill="#EEF2F4" d="M40.9188 26.7935C40.3019 29.9 35.5431 33.3149 29.9692 33.9758C27.083 34.3063 24.241 34.6368 21.2226 34.5046C16.2656 34.2622 12.41 33.3149 12.41 33.3149V34.6808C13.115 39.5718 17.301 39.8582 21.2887 40.0124C25.2985 40.1226 28.8676 38.999 28.8676 38.999L29.0438 42.6342C29.0438 42.6342 26.2238 44.1323 21.2226 44.4188C18.4687 44.573 15.0318 44.3527 11.0441 43.3172C2.40773 41.0039 0.909583 31.7727 0.689268 22.3872L0.667236 14.8304C0.667236 5.26874 6.90216 2.47074 6.90216 2.47074C10.0967 1.01666 15.5165 0.355713 21.1565 0.355713H21.2887C26.9288 0.355713 32.3486 1.01666 35.5431 2.47074C35.5431 2.47074 41.778 5.26874 41.778 14.8304C41.778 14.8304 41.8662 21.9025 40.9188 26.7935ZM34.4416 15.5795C34.4416 13.2001 33.7806 11.3715 32.5689 9.93942C31.3351 8.55144 29.7048 7.8244 27.6558 7.8244C25.3205 7.8244 23.536 8.72769 22.3242 10.5343L21.2226 12.473L20.1211 10.5343C18.8873 8.72769 17.1248 7.8244 14.7674 7.8244C12.7405 7.8244 11.1102 8.55144 9.85438 9.93942C8.64265 11.3715 8.00373 13.2001 8.00373 15.5795V27.1681H12.6304V15.91C12.6304 13.5746 13.6218 12.3409 15.6266 12.3409C17.8298 12.3409 18.9314 13.7729 18.9314 16.5929V22.7397H23.4919V16.5929C23.4919 13.7729 24.5935 12.3409 26.8186 12.3409C28.8015 12.3409 29.7929 13.5746 29.7929 15.91V27.1681H34.4416V15.5795Z"/></svg>