<svg xmlns="http://www.w3.org/2000/svg" width="45" height="45" fill="none" viewBox="0 0 45 45"><path fill="#EEF2F4" d="M19.6079 24.74C19.6079 23.4627 18.5547 22.4094 17.2774 22.4094C16 22.4094 14.9468 23.4627 14.9468 24.74C14.9468 25.3581 15.1923 25.9509 15.6294 26.388C16.0665 26.825 16.6592 27.0706 17.2774 27.0706C17.8955 27.0706 18.4883 26.825 18.9253 26.388C19.3624 25.9509 19.6079 25.3581 19.6079 24.74ZM27.0927 30.051C26.0842 31.0595 23.9329 31.418 22.4091 31.418C20.8853 31.418 18.734 31.0595 17.7255 30.051C17.671 29.9927 17.6051 29.9461 17.5319 29.9143C17.4586 29.8825 17.3796 29.8661 17.2998 29.8661C17.2199 29.8661 17.1409 29.8825 17.0677 29.9143C16.9944 29.9461 16.9285 29.9927 16.874 30.051C16.8156 30.1055 16.7691 30.1715 16.7373 30.2447C16.7055 30.318 16.6891 30.397 16.6891 30.4768C16.6891 30.5567 16.7055 30.6357 16.7373 30.7089C16.7691 30.7822 16.8156 30.8481 16.874 30.9026C18.4651 32.4937 21.5127 32.6281 22.4091 32.6281C23.3055 32.6281 26.3532 32.4937 27.9442 30.9026C28.0026 30.8481 28.0491 30.7822 28.0809 30.7089C28.1127 30.6357 28.1291 30.5567 28.1291 30.4768C28.1291 30.397 28.1127 30.318 28.0809 30.2447C28.0491 30.1715 28.0026 30.1055 27.9442 30.051C27.7201 29.8269 27.3392 29.8269 27.0927 30.051ZM27.5409 22.4094C26.2635 22.4094 25.2103 23.4627 25.2103 24.74C25.2103 26.0173 26.2635 27.0706 27.5409 27.0706C28.8182 27.0706 29.8714 26.0173 29.8714 24.74C29.8714 23.4627 28.8406 22.4094 27.5409 22.4094Z"/><path fill="#EEF2F4" d="M22.4094 0C10.0394 0 0 10.0394 0 22.4094C0 34.7794 10.0394 44.8188 22.4094 44.8188C34.7794 44.8188 44.8188 34.7794 44.8188 22.4094C44.8188 10.0394 34.7794 0 22.4094 0ZM35.4068 25.3898C35.4517 25.7036 35.4741 26.0397 35.4741 26.3759C35.4741 31.3956 29.6252 35.4741 22.4094 35.4741C15.1936 35.4741 9.34472 31.3956 9.34472 26.3759C9.34472 26.0397 9.36713 25.7036 9.41195 25.3898C8.26907 24.8744 7.48474 23.7316 7.48474 22.4094C7.48142 21.7668 7.66805 21.1375 8.0212 20.6007C8.37435 20.0638 8.87827 19.6432 9.46966 19.3918C10.0611 19.1404 10.7135 19.0694 11.3452 19.1876C11.9768 19.3059 12.5594 19.6081 13.0199 20.0564C15.2832 18.4205 18.4205 17.3897 21.894 17.2776L23.5523 9.45677C23.5747 9.2999 23.6643 9.16544 23.7988 9.09822C23.9332 9.00858 24.0901 8.98617 24.247 9.00858L29.67 10.1739C29.854 9.80093 30.1343 9.48399 30.482 9.25593C30.8297 9.02786 31.2321 8.89698 31.6475 8.87686C32.0628 8.85674 32.476 8.9481 32.8441 9.14149C33.2122 9.33487 33.5219 9.62322 33.741 9.97663C33.9601 10.33 34.0807 10.7356 34.0902 11.1514C34.0997 11.5671 33.9978 11.9778 33.7951 12.3408C33.5924 12.7039 33.2963 13.0061 32.9374 13.2162C32.5785 13.4262 32.1699 13.5364 31.7541 13.5353C30.4992 13.5353 29.4908 12.5493 29.4235 11.3167L24.5607 10.2859L23.0817 17.2776C26.5103 17.3897 29.5804 18.4429 31.8213 20.0564C32.1649 19.7284 32.5759 19.4793 33.0258 19.3268C33.4756 19.1742 33.9533 19.1217 34.4255 19.1731C34.8978 19.2244 35.3531 19.3783 35.7596 19.624C36.1661 19.8697 36.5141 20.2012 36.7791 20.5954C37.0441 20.9896 37.2198 21.437 37.2938 21.9062C37.3679 22.3753 37.3385 22.8551 37.2078 23.3117C37.0771 23.7684 36.8482 24.191 36.5371 24.5499C36.2261 24.9089 35.8403 25.1955 35.4068 25.3898Z"/></svg>