<svg xmlns="http://www.w3.org/2000/svg" width="39" height="39" fill="none" viewBox="0 0 39 39"><path fill="#EEF2F4" d="M5.91071 27.6968C7.31172 27.6968 8.65536 28.2533 9.64602 29.244C10.6367 30.2346 11.1932 31.5783 11.1932 32.9793C11.1932 35.8386 8.81853 38.2618 5.91071 38.2618C3.05135 38.2618 0.628174 35.8386 0.628174 32.9793C0.628174 31.5783 1.18473 30.2346 2.17539 29.244C3.16606 28.2533 4.50969 27.6968 5.91071 27.6968ZM0.628174 0.557129C10.6281 0.557129 20.2184 4.52958 27.2894 11.6006C34.3604 18.6716 38.3329 28.2619 38.3329 38.2618H31.4753C31.4753 30.0807 28.2253 22.2346 22.4404 16.4496C16.6554 10.6647 8.80933 7.41473 0.628174 7.41473V0.557129ZM0.628174 14.2723C6.99058 14.2723 13.0924 16.7998 17.5913 21.2987C22.0902 25.7976 24.6177 31.8994 24.6177 38.2618H17.7601C17.7601 33.7182 15.9551 29.3606 12.7422 26.1477C9.5294 22.9349 5.17183 21.1299 0.628174 21.1299V14.2723Z"/></svg>